# xmcd
#
# Track frame offsets:
#	150
#	10278
#	22576
#	32454
#	44513
#	62284
#	74572
#	85983
#	96378
#	105341
#	118140
#	131328
#	142416
#	156011
#	166178
#	176661
#	187768
#	198638
#	214306
#	226507
#	239436
#	250904
#	262838
#	274739
#	289609
#
# Disc length: 4010
#
# Revision: 2
# Processed by: cddbd v1.5.1PL0 Copyright (c) Steve Scherf et al.
# Submitted via: audiograbber 1.82.02
# Normalized: r1:DSETVAR1
#
DISCID=560fa819
DTITLE=Various Artist - 50 Hits From The Kings Of Country CD 2 of 2
DYEAR=1900
DGENRE=
TTITLE0=Don Gibson - Lonesome Number One
TTITLE1=Stonewall Jackson - I Love You Because
TTITLE2=Hank Locklin - Please Help Me, I'm Falling
TTITLE3=Jack Greene - There Goes My Everthing
TTITLE4=Ferlin Husky - Convoy
TTITLE5=Johnny Paycheck - Take This Job And Shove It
TTITLE6=Porter Wagoner - Misery Loves Company
TTITLE7=Johnny Russell - Jambalaya
TTITLE8=Faron Young - Alone With You
TTITLE9=Dickey Lee - Never Ending Song Of Love
TTITLE10=Jim Ed Brown - You Can Have Her
TTITLE11=Jimmy Dean - Little Black Book
TTITLE12=David Houston - Almost Persuaded
TTITLE13=Jack Reno - Hitchen' A Ride
TTITLE14=Charlie Walker - Pick Me Up On Your Way Down
TTITLE15=Stu Phillips - Juanita Jones
TTITLE16=Justin Tubb - Take A Little Miss Gray
TTITLE17=Cal Smith - Country Bumpkin
TTITLE18=Merle Haggard - Okie From Muskoree
TTITLE19=Charlie Rich - Good Times Charlie's Got The Blues
TTITLE20=Don Gibson - Give Myself A Party
TTITLE21=Moe Brandy - High Noon
TTITLE22=Willie Nelson - I Hope So
TTITLE23=Roger Miller - Me And Bobby McGee
TTITLE24=Ferlin Husky - San Antonio Rose
EXTD=
EXTT0=
EXTT1=
EXTT2=
EXTT3=
EXTT4=
EXTT5=
EXTT6=
EXTT7=
EXTT8=
EXTT9=
EXTT10=
EXTT11=
EXTT12=
EXTT13=
EXTT14=
EXTT15=
EXTT16=
EXTT17=
EXTT18=
EXTT19=
EXTT20=
EXTT21=
EXTT22=
EXTT23=
EXTT24=
PLAYORDER=
